PathFileType	4	(X/Y/Z)
DataRate	CameraRate	NumFrames	NumMarkers	Units	OrigDataRate	OrigDataStartFrame	OrigNumFrames	
  100.0	  100.0	    4	     56	     mm	  100.0	      321	    855
Frame#	Time	LASI			RASI			LPSI			RPSI			RTH1			RTH2			RTH3			RLFC			RMFC			LTH1			LTH2			LTH3			LLFC			LMFC			RTB1			RTB2			RTB3			RLMAL			RMMAL			LTB1			LTB2			LTB3			LMMAL			LLMAL			RCAL			RTOE			RMT5			LCAL			LTOE			LMT5			LACR			RACR			CLAV			C7			LASH			LPSH			RASH			RPSH			RUA1			RUA2			RUA3			RLEL			RMEL			LUA1			LUA2			LUA3			LLEL			LMEL			RFAsuperior			RFAradius			RFAulna			LFAsuperior			LFAradius			LFAulna			RHJC			LHJC			
		X1	Y1	Z1	X2	Y2	Z2	X3	Y3	Z3	X4	Y4	Z4	X5	Y5	Z5	X6	Y6	Z6	X7	Y7	Z7	X8	Y8	Z8	X9	Y9	Z9	X10	Y10	Z10	X11	Y11	Z11	X12	Y12	Z12	X13	Y13	Z13	X14	Y14	Z14	X15	Y15	Z15	X16	Y16	Z16	X17	Y17	Z17	X18	Y18	Z18	X19	Y19	Z19	X20	Y20	Z20	X21	Y21	Z21	X22	Y22	Z22	X23	Y23	Z23	X24	Y24	Z24	X25	Y25	Z25	X26	Y26	Z26	X27	Y27	Z27	X28	Y28	Z28	X29	Y29	Z29	X30	Y30	Z30	X31	Y31	Z31	X32	Y32	Z32	X33	Y33	Z33	X34	Y34	Z34	X35	Y35	Z35	X36	Y36	Z36	X37	Y37	Z37	X38	Y38	Z38	X39	Y39	Z39	X40	Y40	Z40	X41	Y41	Z41	X42	Y42	Z42	X43	Y43	Z43	X44	Y44	Z44	X45	Y45	Z45	X46	Y46	Z46	X47	Y47	Z47	X48	Y48	Z48	X49	Y49	Z49	X50	Y50	Z50	X51	Y51	Z51	X52	Y52	Z52	X53	Y53	Z53	X54	Y54	Z54	X55	Y55	Z55	X56	Y56	Z56	

352	3.52000	903.51455	1082.13431	-488.28807	663.48115	1089.28403	-474.67622	821.65506	1113.19577	-650.63388	736.80688	1112.00808	-646.31512	599.62655	833.64983	-573.61555	621.12164	758.08128	-508.83852	617.20012	662.33448	-586.12267	615.32352	542.97259	-573.61914	727.27892	525.38084	-589.51659	946.75908	865.75075	-599.99666	956.65068	753.46278	-536.04517	943.45563	656.50092	-595.25599	942.96882	535.82182	-575.34560	833.92967	522.37251	-591.76406	651.84316	409.47843	-556.22729	611.54786	356.53842	-604.43884	661.31424	228.77235	-585.05467	652.22983	118.56404	-632.52270	729.01727	139.89987	-602.38900	917.36543	418.79355	-561.69390	929.08363	320.18709	-648.75253	888.41683	229.78399	-581.76788	809.45017	126.78015	-596.12589	890.76720	110.15221	-622.80426	720.78024	97.65413	-683.96640	675.88264	74.28020	-461.74737	610.71832	55.20361	-539.98703	830.94732	86.89245	-680.70091	853.63009	76.65559	-454.73543	920.23906	55.94769	-515.32582	938.56492	1582.78114	-587.41734	627.07494	1561.44471	-561.19157	763.52363	1516.23633	-495.85736	780.98702	1595.58565	-616.74134	930.96266	1525.79175	-525.71275	951.59530	1525.83196	-654.29797	632.94525	1509.31907	-505.44740	605.52212	1525.93257	-617.31182	539.16761	1400.34985	-552.02387	554.84269	1320.72319	-594.41386	510.33774	1273.07884	-566.23135	480.59558	1209.48349	-547.52463	566.45302	1193.07450	-542.13174	1011.27383	1434.18161	-617.95514	996.89475	1331.11974	-618.77937	1061.78999	1304.51858	-590.25962	1093.80775	1228.66703	-578.23467	1013.79190	1208.85651	-559.07367	465.39668	1132.08965	-535.80553	440.54336	969.59953	-412.47149	423.94839	956.38883	-476.36652	1111.69964	1133.74291	-571.95066	1163.36530	1002.43668	-458.63049	1174.78679	987.86852	-525.75260	676.56797	987.79810	-558.24314	882.82443	979.09990	-564.15297	
353	3.53000	903.37899	1082.18055	-488.32603	663.37502	1089.30261	-474.75183	821.55033	1113.20086	-650.67775	736.68809	1112.01447	-646.37127	598.56582	833.47459	-572.07901	621.07360	758.07714	-508.93056	616.96277	662.34140	-586.18676	615.26763	542.98185	-573.73578	727.19556	525.37879	-589.60807	946.66412	865.76319	-600.00867	956.54441	753.48199	-536.04159	943.36482	656.51022	-595.25144	942.90052	535.83700	-575.34911	833.80704	522.38661	-591.73140	651.79305	409.47421	-556.34376	611.53646	356.52366	-604.44394	661.26202	228.64536	-585.34438	652.22741	118.54674	-632.53298	729.00557	139.89900	-602.40652	917.33772	418.79063	-561.71626	929.03612	320.18834	-648.73529	888.37496	229.80048	-581.76843	809.57822	126.76063	-596.15532	890.71189	110.15190	-622.75988	720.77520	97.64789	-683.97172	675.88169	74.28434	-461.77178	610.71802	55.19884	-539.93605	830.93355	86.88735	-680.68170	853.62477	76.65400	-454.73043	920.23573	55.95000	-515.32504	938.21268	1583.12208	-587.58322	627.06824	1561.90790	-561.66948	763.26158	1516.41798	-495.88057	780.86212	1595.62924	-616.85031	930.93063	1526.27751	-525.83137	951.29795	1526.03534	-654.20663	632.57244	1509.95508	-505.78719	605.67788	1526.26213	-617.77686	537.20889	1402.47958	-552.60883	552.29569	1322.21020	-593.79202	506.22169	1275.74857	-566.13603	474.91192	1212.90115	-547.41489	560.33894	1195.05749	-539.93710	1012.27319	1435.73858	-617.99916	1000.41783	1332.48097	-617.91128	1066.31691	1307.56392	-590.28724	1100.21265	1232.57711	-578.14143	1021.01784	1211.06804	-557.53114	457.85354	1136.03849	-535.36061	427.31008	974.98089	-411.39712	411.56987	961.66747	-475.22957	1120.40272	1138.17479	-571.53465	1176.78236	1008.80855	-458.25840	1187.48569	994.30141	-525.50818	676.46552	987.80452	-558.28991	882.72394	979.13247	-564.18326	
354	3.54000	903.22612	1082.21515	-488.32513	663.24642	1089.32079	-474.82449	821.46683	1113.20227	-650.70277	736.58572	1112.00876	-646.41412	597.76799	833.40991	-571.05339	621.02343	758.07381	-509.01122	616.73968	662.33742	-586.22874	615.21455	542.95660	-573.85553	727.12698	525.37249	-589.64680	946.57983	865.77085	-599.98479	956.42310	753.49509	-535.99464	943.28939	656.52103	-595.23585	942.82724	535.84541	-575.33514	833.72014	522.38140	-591.73672	651.74945	409.46413	-556.43104	611.52973	356.53679	-604.41821	661.22687	228.57081	-585.49591	652.21502	118.53169	-632.52365	729.01298	139.90544	-602.45900	917.30919	418.78925	-561.71625	928.99303	320.18518	-648.69536	888.33272	229.81482	-581.75664	809.69875	126.73285	-596.21018	890.53616	110.13604	-622.62275	720.77616	97.64554	-683.97642	675.87205	74.29725	-461.77297	610.69627	55.19967	-539.91540	830.92042	86.88683	-680.66965	853.61698	76.64842	-454.72564	920.23050	55.95114	-515.32766	937.84189	1583.49943	-587.70070	627.12111	1562.42817	-562.18371	763.02126	1516.61194	-495.92704	780.77463	1595.67793	-616.98843	930.92064	1526.78608	-525.95347	951.00837	1526.28560	-654.07454	632.19100	1510.67206	-506.12065	605.86433	1526.66478	-618.32825	535.21009	1404.80353	-553.20101	549.61387	1323.85940	-593.08250	502.04556	1278.68859	-566.08236	469.08090	1216.60852	-547.27041	554.01875	1197.34390	-537.53849	1013.33630	1437.39744	-618.06436	1004.01797	1333.99588	-617.01649	1070.89672	1310.84211	-590.31403	1106.70897	1236.78006	-578.04540	1028.40572	1213.57111	-556.00212	450.12287	1140.35111	-534.90912	413.82647	980.89802	-410.36566	398.97416	967.49875	-474.07089	1129.22685	1142.96037	-571.12572	1190.32245	1015.73768	-457.95793	1200.41563	1001.09026	-525.11028	676.35486	987.81022	-558.33917	882.61565	979.15241	-564.16986	
355	3.55000	903.06093	1082.22897	-488.29532	663.09961	1089.33095	-474.88726	821.40222	1113.20352	-650.71485	736.50592	1111.99188	-646.45707	597.47586	833.44504	-570.90090	620.95948	758.06091	-509.05589	616.59494	662.31276	-586.23534	615.15649	542.89646	-573.97450	727.06693	525.36157	-589.64873	946.50890	865.77606	-599.92650	956.29278	753.50501	-535.91401	943.21752	656.53389	-595.19134	942.75551	535.85194	-575.29540	833.65825	522.36197	-591.75000	651.70655	409.45211	-556.47469	611.52104	356.59874	-604.35260	661.21710	228.59025	-585.43299	652.20081	118.52082	-632.50414	729.01640	139.90847	-602.47168	917.27689	418.78972	-561.69081	928.96361	320.18782	-648.64355	888.29625	229.82319	-581.72851	809.78913	126.70561	-596.25765	890.30063	110.11293	-622.43927	720.77851	97.64466	-683.97583	675.85802	74.31112	-461.75944	610.67784	55.19677	-539.93759	830.91609	86.89417	-680.66904	853.60815	76.64099	-454.71834	920.22472	55.95157	-515.32888	937.45867	1583.91971	-587.81104	627.21249	1563.01284	-562.70389	762.82250	1516.81431	-495.97111	780.71572	1595.74472	-617.16363	930.91304	1527.33407	-526.08872	950.70252	1526.57280	-653.92599	631.80929	1511.45825	-506.45590	606.08139	1527.15300	-618.95691	533.19661	1407.30301	-553.85941	546.81215	1325.68988	-592.42857	497.77141	1281.86829	-566.06013	463.11200	1220.61354	-547.11799	547.39431	1199.84858	-535.17563	1014.42050	1439.16972	-618.16849	1007.66228	1335.66458	-616.14011	1075.50707	1314.36992	-590.36025	1113.26947	1241.29557	-577.96331	1035.91120	1216.39283	-554.48615	442.22219	1145.02771	-534.44405	400.11261	987.38886	-409.39952	386.16840	973.89370	-472.97957	1138.14903	1148.12515	-570.71198	1203.93562	1023.25803	-457.65878	1213.52825	1008.34000	-524.66731	676.23764	987.81345	-558.39902	882.50064	979.15475	-564.12497	
